<svg xmlns="http://www.w3.org/2000/svg"  viewBox="0 0 64 64" width="48px" height="48px"><path d="M 32 9 C 20.491 9 13 15.577 13 27 L 13 32 C 13 32 12 33.853 12 36 C 12 38.875 14.338 41.181 16 42 C 17.896 49.908 27 55 32 55 C 37 55 46.104 49.908 48 42 C 49.662 41.181 52 38.521484 52 35.646484 C 52 33.499484 51 32 51 32 L 51 27 C 51 13.514 41.337891 12.755859 41.337891 12.755859 C 41.337891 12.755859 38.481 9 32 9 z M 32 13 C 38.061 13 39.015625 16.664062 39.015625 16.664062 C 39.015625 16.664062 47 17.226 47 27 L 47 31 L 46.646484 31 C 45.727484 26.963 43.18775 21.941516 38.46875 20.603516 C 38.46875 20.603516 33.877203 27.527 19.658203 27 L 17.658203 31 L 17 31 L 17 27 C 17 18.103 22.467 13 32 13 z M 39.410156 25.566406 C 40.926156 26.924406 43.471625 31.759 43.515625 35 L 47.9375 35 C 47.974063 35.201126 48 35.412486 48 35.646484 C 48 37.852484 44.548828 39.242188 44.548828 39.242188 C 44.548828 45.865187 35.417 51 32 51 C 28.583 51 19.451172 45.470188 19.451172 39.242188 C 19.451172 39.242187 16 38.248 16 36 C 16 35.630822 16.04428 35.30424 16.103516 35 L 20.132812 35 L 22.136719 30.990234 C 30.647719 30.858234 35.607156 29.322406 39.410156 25.566406 z"/></svg>